<svg xmlns="http://www.w3.org/2000/svg" version="1.1" xmlns:xlink="http://www.w3.org/1999/xlink" xmlns:svgjs="http://svgjs.dev/svgjs" width="1500" height="776" viewBox="0 0 1500 776"><g transform="matrix(1,0,0,1,-0.9087536941876806,-0.36291164783580143)"><svg viewBox="0 0 396 205" data-background-color="#14293a" preserveAspectRatio="xMidYMid meet" height="776" width="1500" xmlns="http://www.w3.org/2000/svg" xmlns:xlink="http://www.w3.org/1999/xlink"><g id="tight-bounds" transform="matrix(1,0,0,1,0.23991097526555905,0.09587227810095555)"><svg viewBox="0 0 395.52 204.8082554437981" height="204.8082554437981" width="395.52"><g><svg viewBox="0 0 395.52 204.8082554437981" height="204.8082554437981" width="395.52"><g transform="matrix(1,0,0,1,0,132.05744422731414)"><svg viewBox="0 0 395.52 72.75081121648397" height="72.75081121648397" width="395.52"><g id="textblocktransform"><svg viewBox="0 0 395.52 72.75081121648397" height="72.75081121648397" width="395.52" id="textblock"><g><svg viewBox="0 0 395.52 49.23396496224814" height="49.23396496224814" width="395.52"><g transform="matrix(1,0,0,1,0,0)"><svg width="395.52" viewBox="2.1739 -37.59091 399.85292 49.77332" height="49.23396496224814" data-palette-color="#e9e4de"><path d="M13.262 11.385l-7.206 0.797-3.882-35.096 7.206-0.797 1.608 14.542 15.983-1.768-1.609-14.542 7.207-0.797 3.882 35.096-7.206 0.797-1.752-15.833-15.982 1.768zM58.054 3.167v0c-0.418 0.425-0.903 0.91-1.458 1.454-0.555 0.538-1.175 1.051-1.862 1.54-0.68 0.488-1.425 0.919-2.235 1.292-0.804 0.366-1.661 0.588-2.571 0.669v0c-1.009 0.089-1.943-0.022-2.8-0.335-0.857-0.306-1.603-0.759-2.238-1.359-0.635-0.6-1.147-1.317-1.536-2.153-0.388-0.836-0.624-1.725-0.707-2.668v0c-0.1-1.136 0.052-2.25 0.457-3.343 0.399-1.093 1.104-2.089 2.115-2.988 1.012-0.893 2.361-1.651 4.046-2.275 1.685-0.624 3.763-1.045 6.233-1.263v0l1.345-0.119-0.153-1.733c-0.12-1.361-0.641-2.373-1.563-3.034-0.921-0.655-2.086-0.92-3.494-0.796v0c-0.578 0.051-1.189 0.172-1.835 0.363-0.646 0.191-1.279 0.441-1.902 0.75-0.629 0.303-1.238 0.648-1.826 1.035-0.589 0.38-1.122 0.785-1.599 1.215v0l-0.449-0.201-1.677-4.43c1.913-1.153 3.729-1.993 5.45-2.519 1.72-0.533 3.39-0.872 5.01-1.015v0c1.501-0.133 2.892-0.105 4.173 0.083 1.288 0.181 2.401 0.548 3.34 1.101 0.946 0.559 1.713 1.318 2.3 2.276 0.587 0.965 0.944 2.162 1.07 3.59v0l0.971 10.997c0.024 0.272 0.069 0.549 0.134 0.832 0.065 0.282 0.172 0.54 0.319 0.774 0.147 0.228 0.341 0.408 0.58 0.542 0.239 0.126 0.541 0.173 0.906 0.14v0c0.226-0.02 0.473-0.065 0.741-0.135 0.268-0.071 0.549-0.182 0.844-0.336v0l0.284 3.218c-0.904 0.756-1.814 1.365-2.73 1.827-0.923 0.456-1.833 0.724-2.73 0.803v0c-0.638 0.056-1.205-0.001-1.701-0.171-0.504-0.176-0.955-0.431-1.353-0.764-0.405-0.339-0.759-0.753-1.063-1.241-0.311-0.488-0.589-1.029-0.836-1.623zM57.589 0.066l-0.492-5.568-1.225 0.108c-1.474 0.13-2.664 0.339-3.569 0.627-0.898 0.293-1.586 0.649-2.064 1.065-0.478 0.424-0.791 0.9-0.938 1.429-0.147 0.528-0.195 1.088-0.143 1.679v0c0.055 0.624 0.19 1.161 0.403 1.61 0.22 0.449 0.5 0.812 0.84 1.091 0.339 0.278 0.721 0.475 1.146 0.591 0.431 0.109 0.886 0.143 1.364 0.101v0c0.691-0.061 1.417-0.286 2.179-0.675 0.769-0.389 1.602-1.075 2.499-2.058zM73.208 5.674l-1.823-25.484 5.885-0.421 1.222 4.193c0.51-0.538 1.094-1.108 1.753-1.709 0.659-0.602 1.374-1.164 2.145-1.688 0.778-0.524 1.608-0.974 2.49-1.351 0.882-0.377 1.822-0.602 2.819-0.673v0c1.17-0.084 2.256 0.056 3.258 0.419 0.995 0.363 1.863 0.909 2.603 1.638 0.734 0.729 1.33 1.629 1.788 2.699 0.458 1.07 0.733 2.263 0.827 3.58v0l1.221 17.067-7.092 0.507-1.154-16.129c-0.056-0.785-0.219-1.471-0.488-2.06-0.269-0.582-0.611-1.066-1.026-1.45-0.415-0.378-0.889-0.648-1.421-0.811-0.533-0.162-1.105-0.222-1.718-0.178v0c-1.024 0.073-1.983 0.406-2.876 0.998-0.893 0.599-1.766 1.339-2.618 2.222v0l1.297 18.124zM121.622-4.78l-0.677-12.972c-0.919-0.339-1.734-0.547-2.446-0.624-0.711-0.07-1.3-0.092-1.766-0.068v0c-1.205 0.063-2.248 0.344-3.13 0.844-0.881 0.507-1.608 1.172-2.179 1.997-0.564 0.831-0.975 1.79-1.232 2.878-0.257 1.088-0.353 2.245-0.289 3.47v0c0.059 1.138 0.251 2.187 0.575 3.144 0.323 0.951 0.75 1.773 1.28 2.467 0.536 0.686 1.165 1.211 1.884 1.574 0.72 0.363 1.513 0.522 2.379 0.476v0c0.992-0.052 1.971-0.36 2.935-0.924 0.959-0.564 1.847-1.318 2.666-2.262zM120.682-22.786l-0.684-13.112 7.1-0.37 2.013 38.557-5.942 0.31-1.084-4.069c-0.552 0.556-1.143 1.121-1.774 1.695-0.631 0.574-1.314 1.103-2.05 1.589-0.735 0.492-1.532 0.901-2.389 1.226-0.851 0.325-1.766 0.513-2.745 0.564v0c-1.538 0.08-2.934-0.187-4.187-0.803-1.261-0.622-2.343-1.47-3.247-2.544-0.911-1.081-1.631-2.338-2.16-3.773-0.522-1.441-0.824-2.931-0.904-4.469v0c-0.106-2.037 0.167-3.954 0.822-5.75 0.654-1.797 1.596-3.371 2.827-4.724 1.238-1.353 2.707-2.438 4.407-3.254 1.706-0.823 3.561-1.287 5.565-1.392v0c0.865-0.045 1.691-0.028 2.476 0.051 0.785 0.079 1.437 0.169 1.956 0.268zM136.43 2.05l-0.742-25.54 5.897-0.171 1.044 4.241c0.545-0.529 1.156-1.084 1.832-1.664 0.677-0.573 1.392-1.104 2.145-1.593 0.76-0.482 1.555-0.889 2.385-1.22 0.837-0.331 1.689-0.509 2.556-0.534v0c0.82-0.024 1.603 0.08 2.35 0.312 0.747 0.238 1.427 0.569 2.04 0.991 0.619 0.429 1.164 0.933 1.634 1.513 0.477 0.58 0.855 1.202 1.135 1.868v0c0.624-0.565 1.274-1.148 1.95-1.748 0.67-0.593 1.384-1.137 2.144-1.633 0.759-0.496 1.564-0.909 2.415-1.24 0.851-0.332 1.766-0.512 2.745-0.54v0c1.199-0.035 2.289 0.167 3.269 0.605 0.98 0.438 1.818 1.048 2.514 1.828 0.697 0.787 1.241 1.721 1.632 2.803 0.398 1.082 0.616 2.25 0.652 3.503v0l0.496 17.053-7.117 0.207-0.47-16.163c-0.022-0.74-0.134-1.403-0.338-1.992-0.211-0.594-0.505-1.092-0.884-1.494-0.372-0.409-0.811-0.72-1.317-0.933-0.5-0.206-1.056-0.299-1.669-0.281v0c-0.5 0.015-0.971 0.098-1.413 0.251-0.449 0.16-0.89 0.369-1.323 0.629-0.432 0.266-0.86 0.582-1.283 0.947-0.423 0.366-0.855 0.755-1.296 1.169v0c0.057 0.339 0.09 0.701 0.101 1.087v0l0.496 17.053-7.107 0.207-0.47-16.164c-0.022-0.74-0.141-1.403-0.358-1.99-0.217-0.594-0.512-1.092-0.884-1.495-0.372-0.409-0.811-0.72-1.317-0.932-0.506-0.205-1.062-0.299-1.669-0.282v0c-0.486 0.014-0.948 0.098-1.383 0.251-0.436 0.159-0.866 0.369-1.293 0.627-0.426 0.266-0.847 0.578-1.263 0.938-0.417 0.352-0.836 0.738-1.257 1.157v0l0.528 18.162zM197.718-2.947v0c-0.451 0.389-0.976 0.832-1.573 1.328-0.597 0.49-1.258 0.95-1.983 1.381-0.718 0.43-1.496 0.798-2.334 1.102-0.832 0.298-1.704 0.449-2.618 0.453v0c-1.013 0.005-1.934-0.183-2.763-0.565-0.829-0.376-1.535-0.889-2.118-1.539-0.583-0.65-1.034-1.408-1.352-2.273-0.318-0.865-0.479-1.771-0.484-2.718v0c-0.006-1.14 0.238-2.238 0.733-3.294 0.488-1.056 1.273-1.99 2.356-2.802 1.083-0.806 2.489-1.45 4.22-1.932 1.731-0.482 3.836-0.73 6.316-0.743v0l1.35-0.007-0.009-1.74c-0.007-1.367-0.443-2.418-1.306-3.153-0.864-0.729-2.002-1.09-3.416-1.082v0c-0.58 0.003-1.2 0.073-1.859 0.209-0.659 0.137-1.312 0.333-1.957 0.591-0.652 0.25-1.287 0.543-1.905 0.879-0.618 0.33-1.183 0.689-1.695 1.079v0l-0.431-0.238-1.304-4.553c2.002-0.99 3.881-1.677 5.64-2.059 1.758-0.389 3.45-0.588 5.077-0.596v0c1.507-0.008 2.891 0.135 4.152 0.428 1.268 0.287 2.347 0.745 3.237 1.373 0.897 0.635 1.598 1.455 2.103 2.46 0.505 1.011 0.762 2.233 0.769 3.666v0l0.057 11.039c0.001 0.273 0.023 0.553 0.064 0.84 0.041 0.286 0.126 0.553 0.254 0.799 0.128 0.239 0.306 0.435 0.534 0.587 0.227 0.145 0.524 0.217 0.891 0.215v0c0.227-0.001 0.477-0.026 0.749-0.073 0.273-0.048 0.563-0.136 0.869-0.265v0l0.017 3.23c-0.963 0.678-1.92 1.21-2.872 1.595-0.958 0.378-1.887 0.57-2.787 0.574v0c-0.64 0.003-1.201-0.1-1.682-0.311-0.488-0.217-0.916-0.509-1.284-0.873-0.375-0.371-0.694-0.813-0.957-1.325-0.269-0.512-0.502-1.074-0.699-1.687zM197.512-6.076l-0.029-5.59-1.23 0.007c-1.48 0.008-2.683 0.117-3.608 0.328-0.919 0.218-1.634 0.515-2.146 0.891-0.511 0.383-0.862 0.831-1.053 1.346-0.191 0.514-0.284 1.068-0.281 1.661v0c0.003 0.627 0.093 1.173 0.268 1.639 0.182 0.466 0.431 0.851 0.746 1.156 0.315 0.305 0.679 0.533 1.094 0.685 0.421 0.144 0.871 0.215 1.351 0.213v0c0.693-0.004 1.436-0.167 2.227-0.492 0.798-0.324 1.685-0.939 2.661-1.844zM229.975-6.433l0.155-12.989c-0.895-0.397-1.696-0.657-2.4-0.779-0.705-0.115-1.291-0.176-1.758-0.181v0c-1.207-0.014-2.266 0.199-3.178 0.642-0.912 0.449-1.68 1.067-2.303 1.852-0.616 0.793-1.087 1.724-1.413 2.793-0.326 1.069-0.497 2.218-0.512 3.445v0c-0.014 1.14 0.11 2.198 0.372 3.174 0.262 0.97 0.635 1.818 1.12 2.544 0.491 0.719 1.085 1.283 1.78 1.691 0.695 0.408 1.476 0.618 2.342 0.629v0c0.993 0.012 1.99-0.233 2.989-0.735 0.993-0.501 1.928-1.197 2.806-2.086zM230.191-24.462l0.157-13.129 7.11 0.085-0.463 38.608-5.95-0.072-0.82-4.13c-0.586 0.52-1.213 1.046-1.88 1.578-0.666 0.532-1.382 1.017-2.147 1.454-0.765 0.444-1.586 0.801-2.463 1.07-0.87 0.27-1.795 0.398-2.775 0.387v0c-1.54-0.018-2.916-0.375-4.127-1.069-1.218-0.701-2.244-1.617-3.078-2.748-0.84-1.137-1.478-2.438-1.913-3.903-0.429-1.472-0.634-2.978-0.616-4.517v0c0.024-2.04 0.421-3.935 1.188-5.687 0.768-1.751 1.809-3.262 3.125-4.532 1.322-1.271 2.857-2.259 4.606-2.965 1.755-0.712 3.636-1.056 5.643-1.033v0c0.867 0.01 1.689 0.08 2.467 0.21 0.778 0.129 1.424 0.26 1.936 0.393zM266.21-3.783l-0.099 3.249c-0.804 0.542-1.647 0.987-2.532 1.333-0.878 0.353-1.76 0.633-2.646 0.84-0.893 0.206-1.775 0.35-2.645 0.43-0.869 0.074-1.697 0.098-2.483 0.075v0c-1.932-0.059-3.683-0.385-5.253-0.981-1.576-0.595-2.918-1.439-4.025-2.533-1.107-1.094-1.951-2.417-2.53-3.969-0.58-1.552-0.84-3.317-0.78-5.296v0c0.066-2.179 0.499-4.13 1.299-5.853 0.799-1.716 1.844-3.169 3.134-4.357 1.29-1.181 2.768-2.07 4.433-2.666 1.666-0.603 3.398-0.877 5.197-0.823v0c1.526 0.046 2.931 0.329 4.216 0.849 1.291 0.526 2.396 1.28 3.313 2.261 0.917 0.982 1.621 2.187 2.111 3.616 0.483 1.435 0.697 3.083 0.64 4.942v0c-0.017 0.546-0.056 1.072-0.118 1.577-0.062 0.505-0.139 0.966-0.232 1.384v0l-16.672-0.507c-0.036 1.199 0.145 2.255 0.544 3.168 0.392 0.912 0.969 1.68 1.731 2.303 0.762 0.617 1.688 1.085 2.778 1.405 1.091 0.32 2.303 0.5 3.636 0.541v0c0.44 0.013 0.933 0.015 1.48 0.005 0.541-0.017 1.119-0.059 1.735-0.127 0.616-0.075 1.243-0.182 1.88-0.323 0.638-0.141 1.267-0.322 1.888-0.543zM250.627-13.131l10.425 0.317c0.034-1.126-0.062-2.113-0.29-2.96-0.234-0.854-0.566-1.568-0.996-2.141-0.436-0.58-0.953-1.016-1.551-1.308-0.605-0.285-1.261-0.439-1.967-0.46v0c-0.786-0.024-1.514 0.114-2.183 0.414-0.669 0.3-1.253 0.739-1.751 1.317-0.498 0.578-0.896 1.273-1.194 2.085-0.298 0.811-0.463 1.723-0.493 2.736zM313.894-12.795l-0.848 15.306c-2.344 0.738-4.548 1.23-6.612 1.477-2.07 0.246-4.05 0.316-5.941 0.211v0c-2.949-0.163-5.533-0.707-7.752-1.631-2.219-0.931-4.059-2.178-5.521-3.741-1.456-1.556-2.519-3.395-3.19-5.515-0.67-2.127-0.934-4.465-0.793-7.015v0c0.115-2.07 0.474-3.973 1.078-5.709 0.604-1.736 1.398-3.298 2.383-4.685 0.985-1.381 2.136-2.582 3.454-3.605 1.319-1.022 2.751-1.861 4.296-2.516 1.539-0.656 3.161-1.127 4.866-1.413 1.705-0.279 3.439-0.37 5.203-0.272v0c0.579 0.032 1.237 0.092 1.973 0.179 0.736 0.088 1.511 0.204 2.324 0.349 0.814 0.139 1.645 0.315 2.495 0.529 0.849 0.221 1.683 0.474 2.501 0.76v0l-1.363 5.092-0.501 0.183c-1.544-0.82-3.03-1.406-4.46-1.76-1.429-0.353-2.673-0.559-3.731-0.617v0c-1.864-0.103-3.562 0.123-5.096 0.679-1.533 0.556-2.868 1.387-4.004 2.492-1.13 1.106-2.029 2.458-2.698 4.057-0.669 1.592-1.058 3.367-1.167 5.324v0c-0.103 1.864 0.066 3.629 0.508 5.296 0.442 1.667 1.131 3.141 2.069 4.421 0.944 1.281 2.122 2.314 3.533 3.1 1.412 0.786 3.043 1.23 4.894 1.333v0c0.706 0.039 1.517 0.031 2.435-0.025 0.918-0.063 1.781-0.202 2.587-0.418v0l0.678-12.221zM320.809 4.985l1.817-25.486 7.092 0.506-1.817 25.485zM326.439-24.77v0c-0.612-0.044-1.157-0.179-1.635-0.408-0.485-0.228-0.895-0.518-1.231-0.869-0.342-0.359-0.597-0.768-0.765-1.228-0.167-0.466-0.233-0.956-0.196-1.467v0c0.037-0.525 0.183-1.016 0.436-1.473 0.247-0.464 0.575-0.851 0.985-1.163 0.41-0.318 0.882-0.559 1.415-0.721 0.54-0.162 1.112-0.221 1.717-0.179v0c0.612 0.044 1.157 0.176 1.636 0.398 0.485 0.228 0.895 0.525 1.23 0.89 0.342 0.365 0.596 0.781 0.763 1.247 0.167 0.473 0.232 0.966 0.196 1.478v0c-0.039 0.545-0.185 1.043-0.438 1.492-0.246 0.45-0.574 0.831-0.984 1.143-0.409 0.305-0.88 0.535-1.412 0.691-0.539 0.155-1.111 0.211-1.717 0.169zM337.478 6.275l1.748-20.797-5.122-0.43 0.753-3.228 4.781-1.004 0.08-0.956c0.146-1.734 0.542-3.34 1.188-4.818 0.653-1.477 1.525-2.742 2.616-3.794 1.099-1.052 2.413-1.844 3.944-2.378 1.523-0.528 3.238-0.711 5.144-0.551v0c0.751 0.063 1.537 0.183 2.358 0.359 0.814 0.182 1.593 0.425 2.337 0.728v0l-1.46 4.474-0.478 0.2c-0.444-0.292-0.935-0.537-1.474-0.736-0.539-0.199-1.103-0.324-1.694-0.373v0c-0.85-0.071-1.589 0.04-2.216 0.336-0.634 0.295-1.169 0.738-1.607 1.33-0.431 0.593-0.773 1.313-1.025 2.161-0.245 0.849-0.412 1.795-0.499 2.839v0l-0.149 1.773 8.211 0.69-1.498 4.571-7.105-0.597-1.748 20.796zM360.845 0.557l1.273-13.068-5.116-0.498 0.784-3.099c0.875-0.176 1.633-0.36 2.274-0.552 0.642-0.199 1.204-0.432 1.686-0.7 0.488-0.267 0.923-0.57 1.304-0.908 0.382-0.345 0.746-0.751 1.094-1.22 0.353-0.461 0.714-0.999 1.081-1.612 0.367-0.607 0.784-1.31 1.25-2.109v0l3.454 0.336-0.619 6.36 9.067 0.884-1.559 4.55-7.624-0.743-1.165 11.964c-0.153 1.573 0.157 2.718 0.931 3.436 0.781 0.719 1.931 1.153 3.45 1.301v0c0.65 0.063 1.312 0.074 1.986 0.032 0.675-0.048 1.329-0.162 1.963-0.341v0l-0.315 3.235c-1.249 0.716-2.576 1.213-3.984 1.491-1.406 0.272-2.806 0.34-4.199 0.203v0c-1.327-0.129-2.463-0.428-3.41-0.894-0.945-0.474-1.709-1.094-2.29-1.861-0.575-0.766-0.969-1.669-1.183-2.708-0.214-1.039-0.258-2.199-0.133-3.479zM380.316 9.026l1.669-4.764 0.467-0.22c1.213 0.853 2.497 1.553 3.851 2.1 1.354 0.547 2.605 0.884 3.751 1.012v0c1.391 0.155 2.476-0.006 3.253-0.482 0.784-0.469 1.22-1.102 1.309-1.897v0c0.066-0.59-0.066-1.094-0.395-1.513-0.322-0.418-0.774-0.791-1.354-1.117-0.573-0.332-1.237-0.641-1.99-0.926-0.753-0.285-1.517-0.595-2.291-0.93-0.768-0.327-1.523-0.693-2.262-1.098-0.74-0.405-1.383-0.892-1.93-1.463-0.553-0.572-0.975-1.246-1.263-2.022-0.282-0.776-0.364-1.697-0.246-2.764v0c0.135-1.212 0.516-2.307 1.142-3.284 0.625-0.97 1.467-1.782 2.525-2.435 1.058-0.647 2.32-1.103 3.785-1.369 1.459-0.267 3.089-0.299 4.891-0.098v0c0.451 0.05 0.969 0.125 1.555 0.224 0.586 0.099 1.187 0.216 1.802 0.352 0.615 0.142 1.22 0.304 1.818 0.484 0.59 0.18 1.132 0.378 1.624 0.594v0l-1.663 4.714-0.529 0.233c-0.503-0.298-1.03-0.568-1.58-0.81-0.544-0.235-1.085-0.436-1.623-0.604-0.538-0.167-1.053-0.305-1.544-0.413-0.491-0.108-0.935-0.185-1.333-0.229v0c-1.371-0.153-2.424-0.012-3.156 0.422-0.726 0.436-1.133 1.044-1.22 1.826v0c-0.067 0.603 0.067 1.118 0.401 1.544 0.328 0.426 0.782 0.808 1.361 1.148 0.579 0.34 1.245 0.652 1.999 0.938 0.746 0.285 1.514 0.588 2.303 0.911 0.789 0.323 1.554 0.683 2.294 1.081 0.74 0.398 1.387 0.883 1.941 1.454 0.547 0.571 0.968 1.242 1.265 2.012 0.297 0.764 0.386 1.683 0.266 2.757v0c-0.132 1.179-0.504 2.265-1.118 3.256-0.614 0.991-1.438 1.822-2.472 2.491-1.041 0.669-2.285 1.154-3.734 1.455-1.448 0.295-3.064 0.342-4.846 0.144v0c-0.709-0.079-1.437-0.197-2.184-0.354-0.748-0.151-1.498-0.342-2.25-0.574-0.752-0.232-1.491-0.495-2.216-0.79-0.724-0.302-1.415-0.634-2.073-0.996z" opacity="1" transform="matrix(1,0,0,1,0,0)" fill="#e9e4de" class="wordmark-text-0" data-fill-palette-color="primary" id="text-0"></path></svg></g></svg></g><g transform="matrix(1,0,0,1,118.31980799999998,53.19931368503506)"><svg viewBox="0 0 158.88038400000002 19.55149753144891" height="19.55149753144891" width="158.88038400000002"><g transform="matrix(1,0,0,1,0,0)"><svg width="158.88038400000002" viewBox="6 -35.68 365.24 44.96" height="19.55149753144891" data-palette-color="#e9e4de"><path d="M15.13-14.25L8.55-14.25 8.55 0 6 0 6-35.38 15.13-35.38Q21.35-35.38 24.51-32.65 27.68-29.93 27.68-24.88L27.68-24.88Q27.68-22.55 26.81-20.6 25.95-18.65 24.33-17.24 22.7-15.83 20.38-15.04 18.05-14.25 15.13-14.25L15.13-14.25ZM8.55-33.35L8.55-16.3 15.13-16.3Q17.48-16.3 19.33-16.95 21.18-17.6 22.46-18.75 23.75-19.9 24.44-21.46 25.13-23.03 25.13-24.88L25.13-24.88Q25.13-28.95 22.61-31.15 20.1-33.35 15.13-33.35L15.13-33.35 8.55-33.35ZM36.1 0L33.72 0 33.72-24.88 34.97-24.88Q35.4-24.88 35.59-24.7 35.77-24.53 35.8-24.1L35.8-24.1 36-18.85Q37.2-21.88 39.2-23.59 41.2-25.3 44.12-25.3L44.12-25.3Q45.25-25.3 46.2-25.06 47.15-24.83 48-24.38L48-24.38 47.67-22.73Q47.6-22.33 47.17-22.33L47.17-22.33Q47.02-22.33 46.75-22.43 46.47-22.53 46.06-22.65 45.65-22.78 45.05-22.88 44.45-22.98 43.67-22.98L43.67-22.98Q40.85-22.98 39.03-21.23 37.22-19.48 36.1-16.18L36.1-16.18 36.1 0ZM62.95-25.28L62.95-25.28Q65.05-25.28 66.83-24.55 68.62-23.83 69.93-22.44 71.25-21.05 71.98-19.03 72.72-17 72.72-14.38L72.72-14.38Q72.72-13.83 72.56-13.63 72.4-13.43 72.05-13.43L72.05-13.43 54.07-13.43 54.07-12.95Q54.07-10.15 54.72-8.03 55.37-5.9 56.57-4.46 57.77-3.03 59.47-2.3 61.17-1.58 63.27-1.58L63.27-1.58Q65.15-1.58 66.52-1.99 67.9-2.4 68.83-2.91 69.77-3.43 70.32-3.84 70.87-4.25 71.12-4.25L71.12-4.25Q71.45-4.25 71.62-4L71.62-4 72.27-3.2Q71.67-2.45 70.68-1.8 69.7-1.15 68.48-0.69 67.27-0.23 65.88 0.05 64.5 0.33 63.1 0.33L63.1 0.33Q60.55 0.33 58.45-0.56 56.35-1.45 54.85-3.15 53.35-4.85 52.53-7.31 51.72-9.78 51.72-12.95L51.72-12.95Q51.72-15.63 52.48-17.89 53.25-20.15 54.68-21.79 56.12-23.43 58.21-24.35 60.3-25.28 62.95-25.28ZM62.97-23.5L62.97-23.5Q61.05-23.5 59.52-22.9 58-22.3 56.88-21.18 55.77-20.05 55.08-18.48 54.4-16.9 54.17-14.95L54.17-14.95 70.57-14.95Q70.57-16.95 70.02-18.54 69.47-20.13 68.47-21.23 67.47-22.33 66.07-22.91 64.67-23.5 62.97-23.5ZM81.49 0L79.12 0 79.12-24.88 80.42-24.88Q81.07-24.88 81.17-24.25L81.17-24.25 81.39-20.65Q82.12-21.68 82.94-22.53 83.77-23.38 84.71-23.99 85.64-24.6 86.71-24.94 87.77-25.28 88.94-25.28L88.94-25.28Q91.67-25.28 93.29-23.69 94.92-22.1 95.49-19.28L95.49-19.28Q95.94-20.83 96.76-21.95 97.57-23.08 98.62-23.81 99.67-24.55 100.91-24.91 102.14-25.28 103.44-25.28L103.44-25.28Q105.29-25.28 106.77-24.66 108.24-24.05 109.28-22.85 110.32-21.65 110.87-19.9 111.42-18.15 111.42-15.9L111.42-15.9 111.42 0 109.02 0 109.02-15.9Q109.02-19.55 107.44-21.46 105.87-23.38 102.94-23.38L102.94-23.38Q101.64-23.38 100.46-22.9 99.27-22.43 98.36-21.49 97.44-20.55 96.91-19.15 96.37-17.75 96.37-15.9L96.37-15.9 96.37 0 93.99 0 93.99-15.9Q93.99-19.53 92.54-21.45 91.09-23.38 88.32-23.38L88.32-23.38Q86.29-23.38 84.57-22.16 82.84-20.95 81.49-18.8L81.49-18.8 81.49 0ZM119.59-24.88L121.97-24.88 121.97 0 119.59 0 119.59-24.88ZM123.02-33.45L123.02-33.45Q123.02-33 122.83-32.61 122.64-32.23 122.34-31.93 122.04-31.63 121.64-31.45 121.24-31.28 120.79-31.28L120.79-31.28Q120.34-31.28 119.94-31.45 119.54-31.63 119.24-31.93 118.94-32.23 118.77-32.61 118.59-33 118.59-33.45L118.59-33.45Q118.59-33.9 118.77-34.31 118.94-34.73 119.24-35.02 119.54-35.33 119.94-35.5 120.34-35.68 120.79-35.68L120.79-35.68Q121.24-35.68 121.64-35.5 122.04-35.33 122.34-35.02 122.64-34.73 122.83-34.31 123.02-33.9 123.02-33.45ZM130.14-24.88L132.54-24.88 132.54-8.97Q132.54-5.48 134.14-3.49 135.74-1.5 139.01-1.5L139.01-1.5Q141.44-1.5 143.54-2.74 145.64-3.98 147.31-6.18L147.31-6.18 147.31-24.88 149.71-24.88 149.71 0 148.39 0Q147.69 0 147.66-0.65L147.66-0.65 147.44-4.35Q145.71-2.2 143.45-0.9 141.19 0.4 138.41 0.4L138.41 0.4Q136.34 0.4 134.79-0.25 133.24-0.9 132.21-2.13 131.19-3.35 130.66-5.08 130.14-6.8 130.14-8.97L130.14-8.97 130.14-24.88ZM160.19 0L157.81 0 157.81-24.88 159.11-24.88Q159.76-24.88 159.86-24.25L159.86-24.25 160.09-20.65Q160.81-21.68 161.64-22.53 162.46-23.38 163.4-23.99 164.34-24.6 165.4-24.94 166.46-25.28 167.64-25.28L167.64-25.28Q170.36-25.28 171.99-23.69 173.61-22.1 174.19-19.28L174.19-19.28Q174.64-20.83 175.45-21.95 176.26-23.08 177.31-23.81 178.36-24.55 179.6-24.91 180.84-25.28 182.14-25.28L182.14-25.28Q183.99-25.28 185.46-24.66 186.94-24.05 187.97-22.85 189.01-21.65 189.56-19.9 190.11-18.15 190.11-15.9L190.11-15.9 190.11 0 187.71 0 187.71-15.9Q187.71-19.55 186.14-21.46 184.56-23.38 181.64-23.38L181.64-23.38Q180.34-23.38 179.15-22.9 177.96-22.43 177.05-21.49 176.14-20.55 175.6-19.15 175.06-17.75 175.06-15.9L175.06-15.9 175.06 0 172.69 0 172.69-15.9Q172.69-19.53 171.24-21.45 169.79-23.38 167.01-23.38L167.01-23.38Q164.99-23.38 163.26-22.16 161.54-20.95 160.19-18.8L160.19-18.8 160.19 0ZM238.21-17.7L238.21-17.7Q238.21-13.6 236.98-10.33 235.76-7.05 233.53-4.75 231.31-2.45 228.21-1.23 225.11 0 221.33 0L221.33 0 208.43 0 208.43-35.38 221.33-35.38Q225.11-35.38 228.21-34.15 231.31-32.93 233.53-30.63 235.76-28.33 236.98-25.05 238.21-21.78 238.21-17.7ZM235.56-17.7L235.56-17.7Q235.56-21.4 234.53-24.3 233.51-27.2 231.64-29.2 229.78-31.2 227.16-32.25 224.53-33.3 221.33-33.3L221.33-33.3 211.01-33.3 211.01-2.08 221.33-2.08Q224.53-2.08 227.16-3.13 229.78-4.17 231.64-6.18 233.51-8.18 234.53-11.08 235.56-13.98 235.56-17.7ZM254.6-25.28L254.6-25.28Q256.7-25.28 258.49-24.55 260.28-23.83 261.59-22.44 262.9-21.05 263.64-19.03 264.38-17 264.38-14.38L264.38-14.38Q264.38-13.83 264.22-13.63 264.05-13.43 263.7-13.43L263.7-13.43 245.73-13.43 245.73-12.95Q245.73-10.15 246.38-8.03 247.03-5.9 248.23-4.46 249.43-3.03 251.13-2.3 252.83-1.58 254.93-1.58L254.93-1.58Q256.8-1.58 258.18-1.99 259.55-2.4 260.49-2.91 261.43-3.43 261.98-3.84 262.53-4.25 262.78-4.25L262.78-4.25Q263.1-4.25 263.28-4L263.28-4 263.93-3.2Q263.33-2.45 262.34-1.8 261.35-1.15 260.14-0.69 258.93-0.23 257.54 0.05 256.15 0.33 254.75 0.33L254.75 0.33Q252.2 0.33 250.1-0.56 248-1.45 246.5-3.15 245-4.85 244.19-7.31 243.38-9.78 243.38-12.95L243.38-12.95Q243.38-15.63 244.14-17.89 244.9-20.15 246.34-21.79 247.78-23.43 249.87-24.35 251.95-25.28 254.6-25.28ZM254.63-23.5L254.63-23.5Q252.7-23.5 251.18-22.9 249.65-22.3 248.54-21.18 247.43-20.05 246.74-18.48 246.05-16.9 245.83-14.95L245.83-14.95 262.23-14.95Q262.23-16.95 261.68-18.54 261.13-20.13 260.13-21.23 259.13-22.33 257.73-22.91 256.33-23.5 254.63-23.5ZM285-22.63L284.48-21.8Q284.3-21.45 283.93-21.45L283.93-21.45Q283.65-21.45 283.21-21.76 282.78-22.08 282.06-22.46 281.35-22.85 280.31-23.16 279.28-23.48 277.78-23.48L277.78-23.48Q276.43-23.48 275.31-23.09 274.2-22.7 273.41-22.05 272.63-21.4 272.19-20.54 271.75-19.68 271.75-18.73L271.75-18.73Q271.75-17.55 272.35-16.78 272.95-16 273.93-15.45 274.9-14.9 276.14-14.5 277.38-14.1 278.68-13.7 279.98-13.3 281.21-12.81 282.45-12.33 283.43-11.6 284.4-10.88 285-9.83 285.6-8.78 285.6-7.28L285.6-7.28Q285.6-5.65 285.01-4.25 284.43-2.85 283.31-1.83 282.2-0.8 280.58-0.2 278.95 0.4 276.88 0.4L276.88 0.4Q274.25 0.4 272.35-0.44 270.45-1.28 268.95-2.63L268.95-2.63 269.53-3.48Q269.65-3.68 269.8-3.78 269.95-3.88 270.23-3.88L270.23-3.88Q270.55-3.88 271.03-3.48 271.5-3.08 272.26-2.61 273.03-2.15 274.16-1.75 275.3-1.35 276.98-1.35L276.98-1.35Q278.55-1.35 279.75-1.79 280.95-2.23 281.75-2.98 282.55-3.73 282.96-4.74 283.38-5.75 283.38-6.88L283.38-6.88Q283.38-8.13 282.78-8.95 282.18-9.78 281.2-10.35 280.23-10.93 278.99-11.33 277.75-11.73 276.44-12.13 275.13-12.53 273.89-13 272.65-13.48 271.68-14.2 270.7-14.93 270.1-15.96 269.5-17 269.5-18.55L269.5-18.55Q269.5-19.88 270.08-21.1 270.65-22.33 271.71-23.25 272.78-24.18 274.3-24.73 275.83-25.28 277.73-25.28L277.73-25.28Q280-25.28 281.76-24.63 283.53-23.98 285-22.63L285-22.63ZM292.97-24.88L295.35-24.88 295.35 0 292.97 0 292.97-24.88ZM296.4-33.45L296.4-33.45Q296.4-33 296.21-32.61 296.02-32.23 295.72-31.93 295.42-31.63 295.02-31.45 294.62-31.28 294.17-31.28L294.17-31.28Q293.72-31.28 293.32-31.45 292.92-31.63 292.62-31.93 292.32-32.23 292.15-32.61 291.97-33 291.97-33.45L291.97-33.45Q291.97-33.9 292.15-34.31 292.32-34.73 292.62-35.02 292.92-35.33 293.32-35.5 293.72-35.68 294.17-35.68L294.17-35.68Q294.62-35.68 295.02-35.5 295.42-35.33 295.72-35.02 296.02-34.73 296.21-34.31 296.4-33.9 296.4-33.45ZM312.35-25.3L312.35-25.3Q313.97-25.3 315.36-24.9 316.75-24.5 317.85-23.78L317.85-23.78 324.22-23.78 324.22-22.95Q324.22-22.33 323.52-22.28L323.52-22.28 319.75-22Q320.45-21.05 320.82-19.86 321.2-18.68 321.2-17.32L321.2-17.32Q321.2-15.53 320.55-14.06 319.9-12.6 318.73-11.56 317.57-10.53 315.95-9.95 314.32-9.38 312.35-9.38L312.35-9.38Q310.2-9.38 308.45-10.03L308.45-10.03Q307.4-9.43 306.8-8.6 306.2-7.78 306.2-7L306.2-7Q306.2-5.93 306.95-5.35 307.7-4.78 308.93-4.51 310.17-4.25 311.76-4.17 313.35-4.1 314.98-4.01 316.62-3.93 318.21-3.7 319.8-3.48 321.03-2.91 322.27-2.35 323.02-1.34 323.77-0.33 323.77 1.35L323.77 1.35Q323.77 2.9 323 4.33 322.22 5.75 320.76 6.85 319.3 7.95 317.22 8.61 315.15 9.28 312.57 9.28L312.57 9.28Q309.95 9.28 307.97 8.74 306 8.2 304.66 7.29 303.32 6.38 302.65 5.18 301.97 3.98 301.97 2.63L301.97 2.63Q301.97 0.65 303.27-0.78 304.57-2.2 306.85-2.98L306.85-2.98Q305.6-3.4 304.86-4.2 304.12-5 304.12-6.43L304.12-6.43Q304.12-6.95 304.32-7.53 304.52-8.1 304.92-8.66 305.32-9.22 305.88-9.73 306.45-10.23 307.2-10.63L307.2-10.63Q305.42-11.65 304.43-13.35 303.45-15.05 303.45-17.32L303.45-17.32Q303.45-19.13 304.08-20.59 304.72-22.05 305.88-23.1 307.05-24.15 308.7-24.73 310.35-25.3 312.35-25.3ZM321.57 1.68L321.57 1.68Q321.57 0.5 320.96-0.21 320.35-0.93 319.32-1.33 318.3-1.73 316.96-1.89 315.62-2.05 314.16-2.13 312.7-2.2 311.22-2.27 309.75-2.35 308.47-2.58L308.47-2.58Q307.52-2.2 306.71-1.71 305.9-1.23 305.32-0.61 304.75 0 304.42 0.74 304.1 1.48 304.1 2.35L304.1 2.35Q304.1 3.45 304.66 4.39 305.22 5.33 306.31 6.01 307.4 6.7 308.97 7.1 310.55 7.5 312.6 7.5L312.6 7.5Q314.5 7.5 316.13 7.08 317.77 6.65 318.98 5.88 320.2 5.1 320.88 4.03 321.57 2.95 321.57 1.68ZM312.35-11L312.35-11Q313.95-11 315.2-11.46 316.45-11.93 317.3-12.75 318.15-13.58 318.58-14.73 319.02-15.88 319.02-17.28L319.02-17.28Q319.02-18.68 318.57-19.84 318.12-21 317.26-21.83 316.4-22.65 315.16-23.1 313.92-23.55 312.35-23.55L312.35-23.55Q310.77-23.55 309.52-23.1 308.27-22.65 307.41-21.83 306.55-21 306.1-19.84 305.65-18.68 305.65-17.28L305.65-17.28Q305.65-15.88 306.1-14.73 306.55-13.58 307.41-12.75 308.27-11.93 309.52-11.46 310.77-11 312.35-11ZM331.74 0L329.37 0 329.37-24.88 330.67-24.88Q331.32-24.88 331.42-24.25L331.42-24.25 331.64-20.5Q333.34-22.65 335.61-23.96 337.87-25.28 340.64-25.28L340.64-25.28Q342.69-25.28 344.26-24.63 345.82-23.98 346.84-22.75 347.87-21.53 348.39-19.8 348.92-18.07 348.92-15.9L348.92-15.9 348.92 0 346.54 0 346.54-15.9Q346.54-19.4 344.94-21.39 343.34-23.38 340.04-23.38L340.04-23.38Q337.59-23.38 335.49-22.11 333.39-20.85 331.74-18.65L331.74-18.65 331.74 0ZM370.64-22.63L370.12-21.8Q369.94-21.45 369.57-21.45L369.57-21.45Q369.29-21.45 368.85-21.76 368.42-22.08 367.7-22.46 366.99-22.85 365.95-23.16 364.92-23.48 363.42-23.48L363.42-23.48Q362.07-23.48 360.95-23.09 359.84-22.7 359.05-22.05 358.27-21.4 357.83-20.54 357.39-19.68 357.39-18.73L357.39-18.73Q357.39-17.55 357.99-16.78 358.59-16 359.57-15.45 360.54-14.9 361.78-14.5 363.02-14.1 364.32-13.7 365.62-13.3 366.85-12.81 368.09-12.33 369.07-11.6 370.04-10.88 370.64-9.83 371.24-8.78 371.24-7.28L371.24-7.28Q371.24-5.65 370.65-4.25 370.07-2.85 368.95-1.83 367.84-0.8 366.22-0.2 364.59 0.4 362.52 0.4L362.52 0.4Q359.89 0.4 357.99-0.44 356.09-1.28 354.59-2.63L354.59-2.63 355.17-3.48Q355.29-3.68 355.44-3.78 355.59-3.88 355.87-3.88L355.87-3.88Q356.19-3.88 356.67-3.48 357.14-3.08 357.9-2.61 358.67-2.15 359.8-1.75 360.94-1.35 362.62-1.35L362.62-1.35Q364.19-1.35 365.39-1.79 366.59-2.23 367.39-2.98 368.19-3.73 368.6-4.74 369.02-5.75 369.02-6.88L369.02-6.88Q369.02-8.13 368.42-8.95 367.82-9.78 366.84-10.35 365.87-10.93 364.63-11.33 363.39-11.73 362.08-12.13 360.77-12.53 359.53-13 358.29-13.48 357.32-14.2 356.34-14.93 355.74-15.96 355.14-17 355.14-18.55L355.14-18.55Q355.14-19.88 355.72-21.1 356.29-22.33 357.35-23.25 358.42-24.18 359.94-24.73 361.47-25.28 363.37-25.28L363.37-25.28Q365.64-25.28 367.4-24.63 369.17-23.98 370.64-22.63L370.64-22.63Z" opacity="1" transform="matrix(1,0,0,1,0,0)" fill="#e9e4de" class="slogan-text-1" data-fill-palette-color="secondary" id="text-1"></path></svg></g></svg></g></svg></g></svg></g><g transform="matrix(1,0,0,1,112.78727089926744,0)"><svg viewBox="0 0 169.9454582014651 117.71081254827105" height="117.71081254827105" width="169.9454582014651"><g><svg xmlns="http://www.w3.org/2000/svg" xmlns:xlink="http://www.w3.org/1999/xlink" xml:space="preserve" version="1.1" style="shape-rendering:geometricPrecision;text-rendering:geometricPrecision;image-rendering:optimizeQuality;" viewBox="1342.7516051357434 10150 57317.496789728524 39700.320277777784" x="0" y="0" fill-rule="evenodd" clip-rule="evenodd" height="117.71081254827105" width="169.9454582014651" class="icon-icon-0" data-fill-palette-color="accent" id="icon-0"><g fill="#99abc1" data-fill-palette-color="accent"><path class="" d="M25611 20074C26033 19652 26586 19441 27140 19441 27693 19441 28246 19652 28669 20074 29091 20496 29302 21049 29302 21603 29302 21983 29203 22363 29004 22700L30038 23892 31072 22700C30873 22363 30774 21983 30774 21603 30774 21050 30985 20497 31407 20074 31829 19652 32382 19441 32936 19441 33489 19441 34042 19652 34465 20074 34887 20496 35098 21049 35098 21603 35098 22156 34887 22709 34465 23132 34043 23554 33490 23765 32936 23765 32556 23765 32176 23666 31839 23467L30647 24501 31839 25535C32176 25336 32556 25237 32936 25237 33489 25237 34042 25448 34465 25870 34887 26292 35098 26845 35098 27399 35098 27952 34887 28505 34465 28928 34043 29350 33490 29561 32936 29561 32383 29561 31830 29350 31407 28928 30985 28506 30774 27953 30774 27399 30774 27019 30873 26639 31072 26302L30038 25110 29004 26302C29203 26639 29302 27019 29302 27399 29302 27952 29091 28505 28669 28928 28247 29350 27694 29561 27140 29561 26587 29561 26034 29350 25611 28928 25189 28506 24978 27953 24978 27399 24978 26846 25189 26293 25611 25870 26033 25448 26586 25237 27140 25237 27520 25237 27900 25336 28237 25535L29429 24501 28237 23467C27900 23666 27520 23765 27140 23765 26587 23765 26034 23554 25611 23132 25189 22710 24978 22157 24978 21603 24978 21050 25189 20497 25611 20074M15416 38375C15477 38251 15626 38201 15750 38262S15924 38472 15863 38596L14898 40556C14837 40680 14688 40730 14564 40669S14390 40459 14451 40335zM44057 38596C43996 38472 44047 38323 44170 38262 44294 38201 44443 38252 44504 38375L45469 40335C45530 40459 45479 40608 45356 40669 45232 40730 45083 40679 45022 40556zM6494 17166C6503 17028 6622 16924 6760 16934 6898 16943 7002 17062 6992 17200L6844 19380C6835 19518 6716 19622 6578 19612 6440 19603 6336 19484 6346 19346zM52881 17199C52872 17061 52976 16943 53113 16933 53251 16924 53369 17028 53379 17165L53527 19345C53536 19483 53432 19601 53295 19611 53157 19620 53039 19516 53029 19379zM5927 21959C5545 21613 5238 21227 5004 20817 4534 19994 4359 19076 4449 18181 4538 17290 4890 16422 5473 15694 5851 15223 6326 14810 6891 14488 7043 14402 7227 14426 7351 14535V14534C7845 14969 8235 15480 8517 16031 8942 16862 9118 17781 9032 18670 8946 19567 8597 20431 7972 21140 7635 21523 7216 21862 6714 22136 6676 22708 6652 23270 6642 23822 6772 23602 6925 23396 7096 23207 7605 22645 8281 22230 9044 22021 9550 21883 10092 21836 10647 21897V21898C10812 21916 10955 22037 10992 22208 11112 22744 11125 23277 11045 23782 10922 24565 10579 25281 10072 25846 9562 26413 8886 26829 8098 27005 7675 27100 7221 27125 6746 27067 6814 27874 6913 28656 7042 29414 7158 29093 7321 28792 7523 28520 7944 27951 8534 27502 9224 27238 9668 27068 10155 26975 10667 26977 10846 26963 11018 27072 11077 27251 11238 27737 11299 28231 11271 28709 11229 29446 10976 30144 10557 30716 10135 31292 9544 31741 8830 31978 8470 32097 8078 32162 7661 32161 7950 33178 8294 34143 8688 35055 8827 34416 9131 33842 9553 33369 10060 32801 10737 32378 11503 32162 12004 32021 12544 31969 13098 32025 13270 32036 13421 32158 13461 32334 13586 32873 13603 33408 13527 33916 13410 34701 13070 35424 12564 35997 12055 36573 11378 36996 10589 37179 10336 37238 10072 37272 9800 37278 10041 37696 10292 38101 10555 38491 11217 39477 11946 40375 12726 41184 12640 40367 12817 39528 13182 38772 13591 37926 14240 37179 15023 36682 15465 36401 15951 36199 16464 36101 16608 36074 16761 36127 16856 36251 17343 36890 17607 37630 17666 38380 17720 39069 17600 39769 17321 40408S16604 41625 16022 42069C15592 42397 15084 42653 14505 42806 17150 44921 20193 46156 23193 46477 23845 46547 24052 46996 23999 47657 23961 48128 23769 48726 23532 49348 23477 49493 23387 49608 23265 49695 22880 49971 22191 49864 21334 49494 20583 49169 19658 48640 18685 48002 16096 46303 13129 43795 12169 42300 12038 42558 11886 42798 11717 43018 11135 43775 10350 44294 9483 44560 8620 44824 7678 44835 6777 44577 6193 44410 5624 44128 5104 43729 4962 43620 4915 43434 4974 43275 5187 42648 5507 42091 5906 41619 6512 40902 7298 40381 8159 40114 8982 39859 9871 39836 10734 40097 10444 39724 10164 39336 9894 38935 9601 38499 9322 38047 9055 37579 8854 37805 8636 37999 8404 38165 7744 38634 6979 38860 6211 38860 5447 38860 4682 38635 4016 38203 3584 37922 3194 37554 2873 37104 2772 36961 2777 36775 2874 36640H2873C3200 36184 3600 35810 4043 35524 4710 35094 5476 34868 6239 34865 6809 34863 7377 34985 7899 35241 7531 34374 7206 33462 6929 32506 6568 32729 6194 32880 5818 32967 5085 33136 4348 33059 3689 32786 3033 32515 2455 32050 2037 31443 1765 31048 1560 30594 1445 30094 1406 29923 1483 29753 1623 29666 2065 29391 2541 29212 3023 29124 3748 28992 4485 29069 5139 29336 5601 29525 6022 29808 6369 30178 6198 29294 6067 28377 5977 27427 5477 27524 4997 27527 4546 27451 3751 27316 3053 26937 2513 26396 1976 25858 1596 25162 1433 24389 1327 23888 1311 23355 1403 22813 1433 22634 1578 22503 1749 22482 2296 22394 2834 22413 3339 22522 4111 22689 4809 23069 5348 23604 5532 23787 5697 23987 5840 24203 5845 23473 5873 22726 5927 21962zM5698 20424C5890 20760 6143 21078 6461 21366 6819 21153 7123 20898 7374 20613 7884 20033 8170 19327 8240 18596 8311 17856 8164 17089 7809 16395 7615 16016 7357 15657 7037 15335 6671 15578 6356 15870 6096 16195 5611 16801 5318 17522 5244 18260 5170 18995 5313 19749 5699 20424zM4678 26661C4976 26711 5292 26718 5620 26674 5664 26353 5659 26045 5612 25756 5510 25135 5212 24590 4786 24167 4356 23740 3795 23436 3171 23301 2845 23230 2503 23206 2154 23234 2125 23574 2148 23905 2215 24221 2347 24843 2651 25402 3080 25831 3505 26257 4054 26556 4679 26661zM7751 31363C8046 31355 8324 31305 8581 31220 9133 31038 9589 30691 9915 30246 10244 29797 10443 29248 10476 28668 10492 28380 10468 28084 10399 27787 10088 27812 9790 27881 9511 27988 8964 28197 8497 28551 8167 28998 7840 29441 7645 29975 7639 30551 7636 30813 7672 31085 7753 31364zM5640 32187C5903 32126 6166 32024 6423 31878 6348 31601 6237 31350 6097 31126 5791 30636 5348 30279 4840 30071 4325 29860 3741 29800 3164 29906 2873 29959 2582 30056 2302 30197 2397 30486 2530 30751 2693 30988 3024 31468 3478 31834 3992 32047 4503 32258 5073 32318 5640 32187M14897 44099C16127 45199 17682 46389 19123 47334 20059 47949 20942 48455 21650 48761 22232 49012 22646 49131 22790 49055 23002 48498 23173 47973 23203 47596 23218 47406 23196 47281 23109 47272 20295 46970 17447 45905 14897 44100zM9464 36471C9798 36495 10116 36470 10412 36401 11033 36257 11566 35923 11968 35469 12372 35012 12643 34433 12738 33801 12786 33478 12788 33143 12739 32803 12386 32796 12043 32841 11720 32932 11103 33106 10558 33445 10151 33901 9748 34353 9482 34918 9417 35548 9387 35842 9400 36152 9464 36472zM11086 42531C11324 42221 11521 41861 11665 41452 11326 41200 10970 41015 10609 40894 9871 40646 9102 40655 8392 40876 7678 41098 7022 41533 6514 42135 6235 42466 6001 42846 5827 43268 6196 43514 6591 43694 6995 43810 7750 44026 8535 44018 9251 43799 9962 43581 10607 43155 11085 42532zM13828 42128C14504 42035 15078 41786 15539 41435 16010 41075 16365 40607 16592 40089 16818 39571 16916 39001 16872 38439 16831 37917 16667 37403 16371 36943 16050 37033 15742 37174 15454 37357 14795 37775 14249 38404 13904 39119 13562 39826 13418 40611 13560 41351 13611 41617 13700 41879 13830 42129zM7941 37513C8189 37337 8419 37116 8621 36850 8424 36591 8201 36375 7960 36202 7444 35832 6844 35656 6239 35659 5630 35661 5015 35845 4474 36193 4193 36374 3932 36601 3703 36871 3925 37133 4177 37354 4450 37531 4986 37879 5600 38060 6211 38060 6817 38060 7421 37882 7941 37512zM6988 26291C7319 26318 7635 26294 7930 26228 8547 26090 9079 25762 9482 25312 9888 24860 10163 24286 10261 23661 10311 23342 10316 23009 10270 22671 9918 22661 9577 22703 9257 22790 8642 22958 8097 23291 7690 23741 7287 24186 7019 24746 6949 25372 6917 25665 6927 25973 6988 26290zM53543 21365C53860 21077 54114 20759 54306 20423 54692 19748 54835 18994 54761 18259 54687 17521 54394 16800 53909 16194 53649 15869 53334 15578 52968 15334 52648 15655 52390 16014 52196 16394 51841 17088 51694 17855 51765 18595 51835 19327 52121 20032 52631 20612 52882 20897 53186 21152 53544 21365zM54999 20817C54765 21227 54459 21612 54076 21959 54129 22722 54158 23469 54163 24200 54306 23984 54471 23783 54655 23601 55193 23066 55891 22686 56664 22519 57169 22410 57707 22391 58254 22479 58426 22499 58570 22631 58600 22810 58692 23352 58676 23885 58570 24386 58406 25159 58026 25856 57490 26393 56950 26934 56252 27314 55457 27448 55006 27524 54526 27521 54026 27424 53936 28374 53805 29291 53634 30175 53981 29805 54401 29522 54864 29333 55519 29065 56255 28988 56980 29121 57462 29209 57938 29388 58380 29663 58521 29750 58597 29921 58558 30091 58443 30591 58238 31046 57966 31440 57548 32047 56970 32512 56314 32783 55655 33056 54918 33133 54185 32964 53809 32877 53435 32726 53074 32503 52797 33460 52472 34372 52104 35238 52627 34982 53194 34860 53764 34862 54527 34865 55293 35091 55960 35521 56403 35807 56803 36181 57130 36637H57129C57225 36772 57231 36958 57130 37101 56810 37551 56419 37919 55987 38200 55321 38633 54555 38857 53792 38857 53024 38857 52259 38631 51599 38162 51367 37997 51148 37802 50948 37576 50682 38045 50402 38497 50109 38932 49839 39333 49559 39721 49269 40094 50132 39833 51021 39855 51844 40111 52704 40378 53491 40899 54097 41616 54495 42088 54816 42645 55029 43272 55088 43431 55040 43617 54899 43726 54379 44126 53810 44407 53226 44574 52325 44832 51383 44821 50520 44557 49653 44292 48868 43772 48286 43015 48117 42795 47965 42556 47834 42297 46874 43791 43907 46299 41318 47999 40345 48637 39421 49167 38669 49491 37812 49861 37123 49968 36738 49692 36616 49605 36526 49490 36471 49345 36234 48723 36042 48125 36004 47654 35951 46993 36158 46544 36810 46474 39810 46152 42853 44918 45498 42803 44919 42650 44411 42395 43981 42066 43399 41622 42961 41044 42682 40405S42283 39066 42337 38377C42396 37626 42659 36886 43147 36248 43242 36124 43395 36071 43539 36098 44052 36196 44538 36399 44980 36679 45763 37176 46412 37923 46821 38769 47187 39525 47363 40363 47277 41181 48057 40373 48785 39475 49448 38488 49710 38098 49962 37693 50203 37275 49930 37269 49666 37235 49414 37176 48625 36993 47948 36570 47439 35994 46933 35421 46593 34699 46476 33913 46400 33405 46417 32870 46542 32331 46582 32155 46734 32033 46905 32022 47460 31967 47999 32019 48500 32159 49266 32374 49943 32797 50450 33366 50872 33839 51176 34413 51315 35052 51709 34140 52053 33175 52342 32158 51924 32159 51533 32094 51173 31975 50458 31739 49868 31289 49446 30713 49027 30141 48774 29444 48732 28706 48705 28228 48766 27734 48926 27248 48985 27070 49157 26961 49336 26974 49847 26972 50334 27065 50779 27235 51468 27499 52059 27948 52480 28517 52682 28790 52845 29090 52961 29411 53089 28653 53189 27870 53257 27064 52781 27122 52328 27097 51905 27002 51117 26825 50440 26410 49931 25843 49424 25279 49081 24562 48958 23779 48878 23273 48891 22741 49011 22205 49049 22034 49191 21913 49356 21895V21894C49911 21833 50453 21880 50959 22018 51722 22226 52399 22642 52907 23204 53078 23393 53231 23599 53361 23819 53351 23267 53327 22705 53289 22133 52787 21859 52368 21520 52031 21137 51407 20427 51057 19563 50971 18667 50886 17779 51061 16859 51486 16028 51768 15476 52158 14966 52652 14531V14532C52776 14423 52961 14398 53112 14485 53677 14807 54152 15220 54530 15691 55113 16419 55465 17286 55554 18178 55644 19073 55469 19990 54999 20814zM54383 26673C54712 26717 55028 26710 55325 26660 55950 26554 56498 26255 56924 25830 57353 25400 57657 24841 57789 24220 57856 23904 57878 23572 57850 23233 57501 23205 57159 23230 56833 23300 56209 23435 55648 23739 55218 24166 54792 24589 54494 25134 54392 25755 54344 26044 54339 26352 54384 26673zM51423 31219C51680 31304 51958 31354 52253 31362 52334 31084 52370 30811 52367 30549 52361 29974 52166 29439 51839 28996 51508 28549 51042 28195 50495 27986 50216 27879 49918 27810 49607 27785 49538 28082 49514 28378 49530 28666 49563 29247 49761 29795 50091 30244 50417 30689 50873 31036 51425 31218zM53581 31877C53837 32024 54100 32126 54364 32186 54931 32317 55501 32257 56012 32046 56526 31833 56980 31467 57311 30987 57474 30750 57607 30485 57702 30196 57422 30054 57131 29958 56840 29905 56263 29800 55680 29860 55164 30070 54656 30278 54212 30634 53907 31125 53768 31349 53657 31600 53581 31877M40881 47334C42322 46389 43876 45200 45107 44099 42557 45904 39709 46970 36895 47271 36809 47280 36786 47405 36801 47595 36831 47972 37002 48497 37214 49054 37357 49130 37772 49012 38354 48760 39062 48454 39945 47948 40881 47333zM49592 36401C49888 36470 50206 36496 50540 36471 50604 36151 50618 35841 50587 35547 50522 34918 50256 34352 49853 33900 49447 33444 48902 33104 48284 32931 47961 32840 47618 32795 47265 32802 47216 33142 47218 33478 47266 33800 47360 34432 47632 35012 48036 35468 48437 35922 48971 36256 49592 36400zM48339 41453C48483 41862 48680 42222 48918 42532 49396 43154 50041 43581 50752 43799 51468 44018 52253 44026 53008 43810 53413 43694 53807 43514 54176 43268 54002 42846 53768 42466 53489 42135 52981 41534 52326 41098 51611 40876 50901 40656 50132 40646 49394 40894 49033 41016 48677 41200 48338 41452zM44466 41435C44927 41787 45500 42035 46177 42128 46307 41878 46396 41617 46447 41350 46589 40610 46445 39825 46103 39118 45757 38404 45211 37774 44553 37356 44265 37173 43957 37032 43636 36942 43339 37402 43176 37917 43135 38438 43091 39001 43188 39570 43415 40088 43641 40606 43996 41074 44468 41434zM51384 36851C51587 37117 51816 37337 52064 37514 52584 37884 53188 38062 53794 38062 54405 38062 55019 37881 55555 37533 55828 37356 56080 37135 56302 36873 56073 36603 55812 36376 55531 36195 54990 35847 54375 35663 53766 35661 53162 35659 52561 35835 52045 36204 51804 36377 51580 36592 51384 36852zM52076 26229C52371 26295 52687 26319 53018 26292 53079 25975 53089 25667 53057 25374 52988 24747 52719 24187 52316 23743 51909 23293 51364 22960 50749 22792 50428 22705 50088 22662 49736 22673 49690 23011 49694 23344 49745 23663 49843 24289 50118 24862 50524 25314 50927 25763 51460 26091 52076 26230zM26180 20640C25914 20906 25781 21254 25781 21603S25914 22300 26180 22566 26794 22965 27143 22965C27291 22965 27438 22941 27579 22893L27235 22595C27068 22451 27050 22199 27194 22032 27198 22027 27567 21659 27571 21655 27738 21511 27989 21529 28134 21696L28432 22040C28480 21899 28504 21751 28504 21604 28504 21255 28371 20907 28105 20641S27491 20242 27142 20242 26445 20375 26179 20641zM26180 28361C26446 28627 26794 28760 27143 28760S27840 28627 28106 28361 28505 27747 28505 27398C28505 27250 28481 27103 28433 26962L28135 27306C27991 27473 27739 27491 27572 27347 27567 27343 27199 26974 27195 26970 27051 26803 27069 26552 27236 26407L27580 26109C27439 26061 27291 26037 27144 26037 26795 26037 26447 26170 26181 26436S25782 27050 25782 27399 25915 28096 26181 28362zM22586 17046C24645 14988 27342 13958 30040 13958S35436 14987 37494 17046C39553 19105 40582 21802 40582 24500S39553 29896 37494 31954C35436 34012 32738 35042 30040 35042S24644 34013 22586 31954C20528 29896 19498 27198 19498 24500S20527 19104 22586 17046M23152 17612C21250 19514 20299 22007 20299 24501 20299 26994 21250 29487 23152 31390 25054 33292 27547 34243 30041 34243 32534 34243 35027 33292 36930 31390 38832 29488 39783 26995 39783 24501 39783 22008 38832 19515 36930 17612 35028 15710 32535 14759 30041 14759 27548 14759 25055 15710 23152 17612M33901 28361C34167 28095 34300 27747 34300 27398S34167 26701 33901 26435 33287 26036 32938 26036C32790 26036 32643 26060 32502 26108L32846 26406C33013 26550 33031 26802 32887 26969 32883 26974 32514 27342 32510 27346 32343 27490 32092 27472 31947 27305L31649 26961C31601 27102 31577 27250 31577 27397 31577 27746 31710 28094 31976 28360S32590 28759 32939 28759 33636 28626 33902 28360zM33901 20640C33635 20374 33287 20241 32938 20241S32241 20374 31975 20640 31576 21254 31576 21603C31576 21751 31600 21898 31648 22039L31946 21695C32090 21528 32342 21510 32509 21654 32514 21658 32882 22027 32886 22031 33030 22198 33012 22449 32845 22594L32501 22892C32642 22940 32790 22964 32937 22964 33286 22964 33634 22831 33900 22565S34299 21951 34299 21602 34166 20905 33900 20639zM19893 14353C22695 11551 26368 10150 30041 10150S37387 11551 40189 14353 44392 20828 44392 24501 42991 31847 40189 34649 33714 38852 30041 38852 22695 37451 19893 34649 15690 28174 15690 24501 17091 17155 19893 14353M30041 10950C26573 10950 23105 12273 20459 14919S16490 21033 16490 24501 17813 31437 20459 34083 26573 38052 30041 38052 36977 36729 39623 34083 43592 27969 43592 24501 42269 17565 39623 14919 33509 10950 30041 10950" fill="#99abc1" fill-rule="nonzero" data-fill-palette-color="accent"></path></g></svg></g></svg></g><g></g></svg></g><defs></defs></svg><rect width="395.52" height="204.8082554437981" fill="none" stroke="none" visibility="hidden"></rect></g></svg></g></svg>